<svg id="Layer_1" data-name="Layer 1" xmlns="http://www.w3.org/2000/svg" viewBox="0 0 332.62 425"><defs><style>.cls-1{fill:none;stroke:#000;stroke-miterlimit:10;stroke-width:20px;}</style></defs><title>face6</title><path class="cls-1" d="M303.68,239.35C278.59,339.72,241.89,415,165.68,415s-112.92-75.28-138-175.65C4.15,145.24,89.47,63.7,165.68,63.7S327.21,145.24,303.68,239.35Z" transform="translate(0)"/><circle cx="115.48" cy="264.44" r="25.09"/><circle cx="215.85" cy="264.44" r="25.09"/><path d="M27.65,239.35S-10,226.8,2.56,264.44s25.09,37.64,25.09,37.64,19.43,9.25,16-7.92S27.65,239.35,27.65,239.35Z" transform="translate(0)"/><path d="M305,239.35s37.64-12.55,25.09,25.09S305,302.08,305,302.08s-19.43,9.25-16-7.92S305,239.35,305,239.35Z" transform="translate(0)"/><path d="M76.78,93S117.48,64,152.37,64,164,17.44,164,17.44s34.88,17.45,34.88,29.06S222.14,0,222.14,0c46.52,75.59,11.63,98.85,40.7,110.48,0,0-17.44,23.26-34.89,29.07s-93,23.26-122.11,0S76.78,93,76.78,93Z" transform="translate(0)"/></svg>