<svg id="Layer_1" data-name="Layer 1" xmlns="http://www.w3.org/2000/svg" viewBox="0 0 442.64 426.47"><defs><style>.cls-1{fill:none;stroke:#000;stroke-miterlimit:10;stroke-width:20px;}</style></defs><title>face4</title><path class="cls-1" d="M353.57,213.25c-29.25,116.14-72,203.22-160.69,203.22S61.41,329.39,32.2,213.25C4.8,104.35,104.14,10,192.88,10S381,104.35,353.57,213.25Z" transform="translate(0)"/><ellipse cx="134.45" cy="242.28" rx="29.22" ry="29.04"/><ellipse cx="251.31" cy="242.28" rx="29.22" ry="29.04"/><path d="M32.2,213.25s-43.82-14.52-29.22,29S32.2,285.8,32.2,285.8s22.62,10.7,18.61-9.17S32.2,213.25,32.2,213.25Z" transform="translate(0)"/><path d="M357.61,213.25s44.14-14.62,29.42,29.24-29.42,43.86-29.42,43.86-22.78,10.78-18.75-9.23S357.61,213.25,357.61,213.25Z" transform="translate(0)"/><rect x="33.54" y="172.49" width="409.1" height="20.45"/><path d="M197.18,8.62C40.36,1.77,26.73,193,26.73,193h335S354,15.47,197.18,8.62ZM182.82,37.18c7.56-.73,15.52-1.79,16.62,9.4,1.06,10.84-3.89,16.52-14.52,16.28-27.36-.61-52,9.18-78.25,17.72C123.92,51.94,151,40.25,182.82,37.18Zm59.06,124.38c-29.23-.46-58.47-.22-87.7,0-17.71.18-21.47-6.85-11.94-21.55v0h0l2.24-10c8.62-27.42,28.34-39.7,56-39.25C227,91.24,245.23,104,253.15,130l0,.06,0-.07a4.61,4.61,0,0,1,1.47,5.07l.06.17C263,150.07,266.17,161.94,241.88,161.56Z" transform="translate(0)"/></svg>