<svg id="Layer_1" data-name="Layer 1" xmlns="http://www.w3.org/2000/svg" viewBox="0 0 407.72 426"><defs><style>.cls-1{fill:none;stroke:#000;stroke-miterlimit:10;stroke-width:20px;}.cls-2{fill:#3b3b3b;}</style></defs><title>face3</title><path d="M407.72,183c0,53.76-36.44,95-86.87,119.74-16.21,8,4-64.76-15.06-104.24C284,153.25,222.7,139.78,200.94,139.78c-24.91,0-73.32,11.12-96.26,57.7-17,34.48-9.05,110.07-24.4,101.89C33.3,274.36,0,234.39,0,183,0,92.15,104.07,0,203.86,0S407.72,92.17,407.72,183Z"/><path class="cls-1" d="M310.13,277.89C290.27,356.81,261.24,416,200.94,416S111.6,356.81,91.75,277.89c-18.61-74,48.89-138.11,109.19-138.11S328.74,203.89,310.13,277.89Z"/><ellipse class="cls-2" cx="161.23" cy="297.62" rx="19.85" ry="19.73"/><ellipse class="cls-2" cx="240.64" cy="297.62" rx="19.85" ry="19.73"/><path d="M91.75,277.89S62,268,71.86,297.62s19.85,29.6,19.85,29.6,15.37,7.27,12.65-6.23S91.75,277.89,91.75,277.89Z"/><path d="M312.86,277.89s30-9.94,20,19.87-20,29.81-20,29.81-15.48,7.32-12.74-6.27S312.86,277.89,312.86,277.89Z"/><path d="M274.44,274.49c19.24,6.53,13.08,22.81,11.75,35.33-1.49,14-14.07,14.69-25.69,14.38-8.81-.24-17.65-.3-26.46,0-13.9.48-22.89-4.24-22.91-19.78,0-6.17-1-12.34-9-12.48-8.79-.15-8,6.77-8.25,12.56-.65,15.2-9.74,20-23.51,19.64-8.81-.25-17.64,0-26.46,0-9.55,0-21.68,1.53-23.93-10.24-2.53-13.25-9.28-29.23,8.24-39,17.7,2.81,35.39,3.55,53-.37,13.31,6,26.67,7.16,40.1.37C239.1,278.18,256.78,277.64,274.44,274.49Z"/><path d="M305.79,180.69c0,17.91-44.6,46.33-99.61,46.33s-99.61-28.42-99.61-46.33,44.6-60.23,99.61-60.23S305.79,162.78,305.79,180.69Z"/></svg>