<svg id="Layer_1" data-name="Layer 1" xmlns="http://www.w3.org/2000/svg" viewBox="0 0 322.04 415.59"><defs><style>.cls-1{fill:none;stroke:#3b3b3b;stroke-miterlimit:10;stroke-width:2px;}.cls-2{fill:#f4f5f5;}</style></defs><title>face1</title><path class="cls-1" d="M380.91,265c-24.12,95.9-59.4,167.82-132.67,167.82S139.69,360.87,115.56,265C92.95,175.06,175,97.16,248.24,97.16S403.53,175.06,380.91,265Z" transform="translate(-88.98 -42.2)"/><ellipse cx="111.01" cy="246.75" rx="24.12" ry="23.97"/><ellipse cx="207.5" cy="246.75" rx="24.12" ry="23.97"/><path d="M115.56,265s-36.18-12-24.12,24,24.12,36,24.12,36,18.68,8.84,15.37-7.57S115.56,265,115.56,265Z" transform="translate(-88.98 -42.2)"/><path d="M384.25,265s36.44-12.07,24.29,24.15-24.29,36.22-24.29,36.22-18.81,8.9-15.48-7.62S384.25,265,384.25,265Z" transform="translate(-88.98 -42.2)"/><path d="M108.88,197.55s22.52-73.19,73.19-90.07,11.26-39.41,11.26-39.41L182.07,56.8S215.84,17.4,294.66,68.06c0,0,84.44,90.07,78.82,112.59-3.55,14.22-63.21,28.43-106.71,37a272.55,272.55,0,0,1-94.62,1.79C140.47,214.49,105.77,206.88,108.88,197.55Z" transform="translate(-88.98 -42.2)"/><path d="M125.77,338.29l5.63-33.78s39.41,67.56,90.07,39.41c31-17.21,55.65-11.27,70.14-4.06a32.62,32.62,0,0,0,34.46-3.34c12.78-9.9,33.09-24.92,36.15-43.27l28.15,16.89s-5.63,16.89-22.52,50.67c-10.4,20.79-29.9,57.42-58.09,77.37-37.41,26.49-88,26.38-124.19-1.72C162.33,418.43,139.78,388.32,125.77,338.29Z" transform="translate(-88.98 -42.2)"/><path d="M108.88,197.55s-11.26,78.82,16.89,140.74,33.78,0,33.78,0S125.77,302,137,208.8" transform="translate(-88.98 -42.2)"/><path d="M373.48,169.4s39.41,78.82,11.26,140.74-45,16.89-45,16.89,39.41-33.78,16.89-140.74" transform="translate(-88.98 -42.2)"/><path class="cls-2" d="M277.77,380.51c0,7.77-12.6,25.33-28.15,25.33s-28.15-17.56-28.15-25.33,12.6-2.81,28.15-2.81S277.77,372.74,277.77,380.51Z" transform="translate(-88.98 -42.2)"/></svg>