<svg id="Layer_1" data-name="Layer 1" xmlns="http://www.w3.org/2000/svg" viewBox="0 0 413.23 426.38"><defs><style>.cls-1{fill:none;stroke:#000;stroke-miterlimit:10;stroke-width:20px;}</style></defs><title>face7</title><path class="cls-1" d="M370.23,213.21C341,329.32,298.3,416.41,209.6,416.41S78.14,329.32,48.93,213.21C21.54,104.33,120.85,10,209.6,10S397.6,104.33,370.23,213.21Z" transform="translate(0 -0.03)"/><path d="M48.93,213.21s-43.81-14.51-29.21,29,29.21,43.54,29.21,43.54,22.62,10.7,18.61-9.16S48.93,213.21,48.93,213.21Z" transform="translate(0 -0.03)"/><path d="M374.26,213.21s44.13-14.62,29.42,29.24-29.42,43.86-29.42,43.86S351.49,297,355.52,277,374.26,213.21,374.26,213.21Z" transform="translate(0 -0.03)"/><path d="M200.24,8.86S50.24,42.94,23,104.29s0,40.9,0,40.9S-17.89,152,9.37,199.73,50.27,227,50.27,227,23,63.39,207.06,36.13c0,0,102.25-27.27,150,136.34V227h34.08s61.35-34.08-20.45-156.79C370.66,70.21,193.43-18.41,200.24,8.86Z" transform="translate(0 -0.03)"/><path d="M244.16,195.69c-25.74,6.94-50.32,14.25-76.63-2.75-11.06-7.13-28.84-6-43.26.5a5,5,0,0,1-4.9,1.77c-6.83,8.27-15.67,15.6-20,25-11.51,25.1,1.93,55.32,27,64.32,27.35,9.81,53.45-3.84,62.84-34.41,3-9.76,4.08-20,16.29-20.76,8-.5,12.49,4.67,15.72,13.13,20.21,53,49.6,59.69,91.21,21.76C323.1,207.94,301.44,186.19,244.16,195.69ZM142.55,270.28c-18.25-.43-30.86-12.31-30.4-31.21.45-18.63,13-30.59,31.41-30.32s29,12.43,31,30.6C171.6,258.28,161.16,270.71,142.55,270.28ZM299.3,240.92c-.93,18.92-13.91,30.09-32.09,29.3s-30.41-13.47-29.43-32.07c.95-18.32,13.82-28.12,31.29-30.44C287.42,212.27,300.24,221.82,299.3,240.92Z" transform="translate(0 -0.03)"/></svg>