<svg id="Layer_1" data-name="Layer 1" xmlns="http://www.w3.org/2000/svg" viewBox="0 0 393.25 429.84"><defs><style>.cls-1{fill:none;stroke:#000;stroke-miterlimit:10;stroke-width:20px;}</style></defs><title>face2</title><path class="cls-1" d="M356.47,214.92C327,332,283.94,419.84,194.47,419.84S61.92,332,32.47,214.92C4.85,105.12,105,10,194.47,10S384.09,105.12,356.47,214.92Z" transform="translate(0 0)"/><ellipse cx="135.56" cy="244.2" rx="29.46" ry="29.27"/><ellipse cx="253.38" cy="244.2" rx="29.46" ry="29.27"/><path d="M32.46,214.92S-11.72,200.28,3,244.19,32.46,288.1,32.46,288.1s22.81,10.79,18.77-9.24S32.46,214.92,32.46,214.92Z" transform="translate(0 0)"/><path d="M360.55,214.92s44.5-14.74,29.67,29.48-29.67,44.23-29.67,44.23-22.93,10.87-18.93-9.29S360.55,214.92,360.55,214.92Z" transform="translate(0 0)"/><path d="M108.36,309.93c21.61,19.67,37.12,23.75,53,2.18,8.64-11.71,62-12.85,73.33-3.88,27.33,21.66,27.33,21.66,53.13,8.53-3,30.66-17.41,45.57-48,40.58-27.21-4.44-52-7.08-80-.36C133.87,363.22,111.62,349.66,108.36,309.93Z" transform="translate(0 0)"/><path d="M347.4,104.49c0,15.09-95.47,61.49-158.11,61.49S44.92,119.58,44.92,104.49,133.51,8.84,196.16,8.84,347.4,89.4,347.4,104.49Z" transform="translate(0 0)"/></svg>