<svg id="Layer_1" data-name="Layer 1" xmlns="http://www.w3.org/2000/svg" viewBox="0 0 376.6 422.48"><defs><style>.cls-1{fill:none;stroke:#000;stroke-miterlimit:10;stroke-width:20px;}</style></defs><title>face5</title><path class="cls-1" d="M342.3,221.18C314.8,330.5,274.59,412.49,191.06,412.49S67.3,330.5,39.79,221.18C14,118.68,107.5,29.87,191,29.87S368.06,118.68,342.3,221.18Z" transform="translate(0 -0.01)"/><ellipse cx="136.03" cy="248.5" rx="27.5" ry="27.33"/><ellipse cx="246.02" cy="248.5" rx="27.5" ry="27.33"/><path d="M39.79,221.18S-1.46,207.51,12.3,248.51s27.5,41,27.5,41,21.29,10.07,17.52-8.63S39.79,221.18,39.79,221.18Z" transform="translate(0 -0.01)"/><path d="M346.08,221.18s41.54-13.76,27.7,27.52S346.08,290,346.08,290s-21.44,10.14-17.65-8.69S346.08,221.18,346.08,221.18Z" transform="translate(0 -0.01)"/><path d="M349.1,176.4S374.77,60.88,259.3,16,47.47,35.24,47.47,35.24L79.56,48.08S-16.7,80.13,2.55,176.4L9,189.24s19.25-51.34,38.51-38.51c0,0,121.94-51.34,160.44,12.84S349.1,176.4,349.1,176.4Z" transform="translate(0 -0.01)"/></svg>