<?xml version="1.0" encoding="utf-8"?>
<!-- Generated by IcoMoon.io -->
<!DOCTYPE svg PUBLIC "-//W3C//DTD SVG 1.1//EN" "http://www.w3.org/Graphics/SVG/1.1/DTD/svg11.dtd">
<svg version="1.1" xmlns="http://www.w3.org/2000/svg" xmlns:xlink="http://www.w3.org/1999/xlink" width="29" height="32" viewBox="0 0 29 32">
<path fill="none" stroke="#000" stroke-width="1.5149" stroke-miterlimit="10" stroke-linecap="butt" stroke-linejoin="miter" d="M25.927 16.752c-2.083 8.28-5.129 14.49-11.455 14.49s-9.374-6.21-11.458-14.49c-1.953-7.764 5.129-14.49 11.453-14.49s13.411 6.727 11.46 14.49z"></path>
<path d="M12.386 18.822c0 1.143-0.933 2.070-2.083 2.070s-2.083-0.927-2.083-2.070c0-1.143 0.933-2.070 2.083-2.070s2.083 0.927 2.083 2.070z"></path>
<path d="M20.717 18.822c0 1.143-0.933 2.070-2.083 2.070s-2.083-0.927-2.083-2.070c0-1.143 0.933-2.070 2.083-2.070s2.083 0.927 2.083 2.070z"></path>
<path d="M3.014 16.752s-3.124-1.035-2.082 2.070 2.083 3.105 2.083 3.105 1.613 0.763 1.327-0.654-1.328-4.522-1.328-4.522z"></path>
<path d="M26.213 16.752s3.146-1.042 2.098 2.084-2.098 3.128-2.098 3.128-1.624 0.768-1.337-0.658 1.337-4.554 1.337-4.554z"></path>
<path d="M26.442 13.36s1.944-8.75-6.802-12.149-16.045 1.457-16.045 1.457l2.431 0.973s-7.291 2.428-5.833 9.719l0.489 0.973s1.458-3.889 2.917-2.917c0 0 9.236-3.889 12.152 0.973s10.691 0.972 10.691 0.972z"></path>
</svg>
