<?xml version="1.0" encoding="utf-8"?>
<!-- Generated by IcoMoon.io -->
<!DOCTYPE svg PUBLIC "-//W3C//DTD SVG 1.1//EN" "http://www.w3.org/Graphics/SVG/1.1/DTD/svg11.dtd">
<svg version="1.1" xmlns="http://www.w3.org/2000/svg" xmlns:xlink="http://www.w3.org/1999/xlink" width="25" height="32" viewBox="0 0 25 32">
<path fill="#000" d="M10.405 19c0 1.019-0.832 1.846-1.857 1.846s-1.857-0.826-1.857-1.846c0-1.019 0.832-1.846 1.857-1.846s1.857 0.826 1.857 1.846z"></path>
<path fill="#000" d="M17.834 19c0 1.019-0.831 1.846-1.857 1.846s-1.857-0.826-1.857-1.846c0-1.019 0.832-1.846 1.857-1.846s1.857 0.826 1.857 1.846z"></path>
<path fill="#000" d="M2.047 17.155s-2.786-0.924-1.857 1.848 1.857 2.772 1.857 2.772 1.438 0.681 1.183-0.583-1.183-4.037-1.183-4.037z"></path>
<path fill="#000" d="M22.735 17.155s2.806-0.929 1.87 1.86-1.87 2.789-1.87 2.789-1.448 0.685-1.192-0.587 1.192-4.062 1.192-4.062z"></path>
<path fill="#000" d="M1.532 11.962s1.734-5.636 5.636-6.935 0.867-3.035 0.867-3.035l-0.867-0.868s2.6-3.034 8.669 0.867c0 0 6.502 6.935 6.069 8.669-0.273 1.095-4.867 2.189-8.217 2.849-1.213 0.249-2.607 0.391-4.034 0.391-1.148 0-2.274-0.092-3.372-0.27-2.319-0.365-4.991-0.951-4.751-1.669z"></path>
<path fill="#000" d="M2.833 22.799l0.433-2.601s3.035 5.202 6.935 3.035c2.387-1.325 4.285-0.868 5.401-0.313 0.327 0.167 0.713 0.264 1.121 0.264 0.579 0 1.113-0.196 1.538-0.526 0.978-0.758 2.542-1.915 2.778-3.327l2.168 1.3s-0.433 1.3-1.734 3.902c-0.801 1.601-2.302 4.421-4.473 5.957-2.881 2.040-6.776 2.031-9.563-0.132-1.789-1.388-3.526-3.707-4.605-7.559z"></path>
<path fill="#000" d="M1.532 11.962s-0.867 6.069 1.3 10.837 2.601 0 2.601 0-2.601-2.794-1.736-9.971z"></path>
<path fill="#000" d="M21.906 9.794s3.035 6.069 0.867 10.837-3.465 1.3-3.465 1.3 3.035-2.601 1.3-10.837z"></path>
<path fill="#f4f5f5" d="M14.537 26.050c0 0.598-0.97 1.95-2.168 1.95s-2.168-1.352-2.168-1.95 0.97-0.216 2.168-0.216 2.168-0.382 2.168 0.216z"></path>
</svg>
