<?xml version="1.0" encoding="utf-8"?>
<!-- Generated by IcoMoon.io -->
<!DOCTYPE svg PUBLIC "-//W3C//DTD SVG 1.1//EN" "http://www.w3.org/Graphics/SVG/1.1/DTD/svg11.dtd">
<svg version="1.1" xmlns="http://www.w3.org/2000/svg" xmlns:xlink="http://www.w3.org/1999/xlink" width="31" height="32" viewBox="0 0 31 32">
<path fill="#000" d="M30.627 13.746c0 4.038-2.737 7.136-6.525 8.995-1.218 0.601 0.3-4.865-1.131-7.83-1.637-3.399-6.241-4.411-7.876-4.411-1.871 0-5.508 0.835-7.231 4.334-1.277 2.59-0.68 8.268-1.833 7.654-3.529-1.879-6.030-4.881-6.030-8.741 0-6.824 7.817-13.746 15.313-13.746s15.313 6.924 15.313 13.746z"></path>
<path fill="none" stroke="#000" stroke-width="1.5023" stroke-miterlimit="10" stroke-linecap="butt" stroke-linejoin="miter" d="M23.296 20.874c-1.492 5.928-3.672 10.374-8.202 10.374s-6.711-4.446-8.202-10.374c-1.398-5.559 3.672-10.374 8.202-10.374s9.6 4.816 8.202 10.374z"></path>
<path fill="#3b3b3b" d="M13.602 22.356c0 0.819-0.668 1.482-1.491 1.482s-1.491-0.664-1.491-1.482c0-0.819 0.668-1.482 1.491-1.482s1.491 0.664 1.491 1.482z"></path>
<path fill="#3b3b3b" d="M19.567 22.356c0 0.819-0.668 1.482-1.491 1.482s-1.491-0.664-1.491-1.482c0-0.819 0.668-1.482 1.491-1.482s1.491 0.664 1.491 1.482z"></path>
<path fill="#000" d="M6.892 20.874s-2.235-0.743-1.494 1.482 1.491 2.223 1.491 2.223 1.155 0.546 0.95-0.468-0.947-3.238-0.947-3.238z"></path>
<path fill="#000" d="M23.501 20.874s2.254-0.747 1.502 1.493-1.502 2.239-1.502 2.239-1.163 0.55-0.957-0.471 0.957-3.261 0.957-3.261z"></path>
<path fill="#000" d="M20.615 20.619c1.445 0.491 0.983 1.713 0.883 2.654-0.112 1.052-1.057 1.103-1.93 1.080-0.662-0.018-1.326-0.023-1.988 0-1.044 0.036-1.719-0.319-1.721-1.486 0-0.463-0.075-0.927-0.676-0.937-0.66-0.011-0.601 0.509-0.62 0.943-0.049 1.142-0.732 1.502-1.766 1.475-0.662-0.019-1.325 0-1.988 0-0.717 0-1.629 0.115-1.798-0.769-0.19-0.995-0.697-2.196 0.619-2.93 1.33 0.211 2.658 0.267 3.981-0.028 1 0.451 2.003 0.538 3.012 0.028 1.336 0.246 2.664 0.206 3.99-0.031z"></path>
<path fill="#000" d="M22.97 13.573c0 1.345-3.35 3.48-7.482 3.48s-7.482-2.135-7.482-3.48 3.35-4.524 7.482-4.524 7.482 3.179 7.482 4.524z"></path>
</svg>
