<?xml version="1.0" encoding="utf-8"?>
<!-- Generated by IcoMoon.io -->
<!DOCTYPE svg PUBLIC "-//W3C//DTD SVG 1.1//EN" "http://www.w3.org/Graphics/SVG/1.1/DTD/svg11.dtd">
<svg version="1.1" xmlns="http://www.w3.org/2000/svg" xmlns:xlink="http://www.w3.org/1999/xlink" width="29" height="32" viewBox="0 0 29 32">
<path fill="none" stroke="#000" stroke-width="1.4889" stroke-miterlimit="10" stroke-linecap="butt" stroke-linejoin="miter" d="M26.538 16c-2.194 8.716-5.4 15.256-12.060 15.256s-9.868-6.539-12.060-15.256c-2.056-8.174 5.4-15.256 12.060-15.256s14.117 7.081 12.060 15.256z"></path>
<path d="M12.285 18.18c0 1.203-0.982 2.179-2.193 2.179s-2.193-0.976-2.193-2.179c0-1.203 0.982-2.179 2.193-2.179s2.193 0.976 2.193 2.179z"></path>
<path d="M21.056 18.18c0 1.203-0.982 2.179-2.193 2.179s-2.193-0.976-2.193-2.179c0-1.203 0.982-2.179 2.193-2.179s2.193 0.976 2.193 2.179z"></path>
<path d="M2.417 16s-3.289-1.090-2.193 2.179 2.193 3.269 2.193 3.269 1.698 0.803 1.397-0.688-1.397-4.76-1.397-4.76z"></path>
<path d="M26.842 16s3.313-1.097 2.209 2.195-2.209 3.293-2.209 3.293-1.707 0.809-1.409-0.692 1.409-4.796 1.409-4.796z"></path>
<path d="M8.067 23.073c1.609 1.464 2.763 1.768 3.946 0.162 0.643-0.872 4.616-0.957 5.459-0.289 2.035 1.613 2.035 1.613 3.955 0.635-0.223 2.283-1.296 3.393-3.573 3.021-2.026-0.331-3.871-0.527-5.956-0.027-1.932 0.465-3.588-0.545-3.831-3.503z"></path>
<path d="M25.863 7.779c0 1.123-7.107 4.578-11.771 4.578s-10.748-3.454-10.748-4.578 6.595-7.121 11.259-7.121 11.259 5.997 11.259 7.121z"></path>
</svg>
