<?xml version="1.0" encoding="utf-8"?>
<!-- Generated by IcoMoon.io -->
<!DOCTYPE svg PUBLIC "-//W3C//DTD SVG 1.1//EN" "http://www.w3.org/Graphics/SVG/1.1/DTD/svg11.dtd">
<svg version="1.1" xmlns="http://www.w3.org/2000/svg" xmlns:xlink="http://www.w3.org/1999/xlink" width="25" height="32" viewBox="0 0 25 32">
<path fill="none" stroke="#000" stroke-width="1.5059" stroke-miterlimit="10" stroke-linecap="butt" stroke-linejoin="miter" d="M22.865 18.022c-1.889 7.557-4.652 13.225-10.391 13.225s-8.502-5.668-10.391-13.225c-1.772-7.086 4.652-13.225 10.391-13.225s12.162 6.139 10.391 13.225z"></path>
<path d="M10.584 19.911c0 1.043-0.846 1.889-1.889 1.889s-1.889-0.846-1.889-1.889c0-1.043 0.846-1.889 1.889-1.889s1.889 0.846 1.889 1.889z"></path>
<path d="M18.141 19.911c0 1.043-0.846 1.889-1.889 1.889s-1.889-0.846-1.889-1.889c0-1.043 0.846-1.889 1.889-1.889s1.889 0.846 1.889 1.889z"></path>
<path d="M2.082 18.022s-2.835-0.945-1.889 1.889 1.889 2.834 1.889 2.834 1.463 0.696 1.205-0.596-1.205-4.127-1.205-4.127z"></path>
<path d="M22.965 18.022s2.834-0.945 1.889 1.889-1.889 2.834-1.889 2.834-1.463 0.696-1.205-0.596 1.205-4.127 1.205-4.127z"></path>
<path d="M5.781 7.002s3.064-2.184 5.691-2.184 0.876-3.506 0.876-3.506 2.626 1.314 2.626 2.188 1.751-3.501 1.751-3.501c3.503 5.691 0.876 7.443 3.064 8.319 0 0-1.313 1.751-2.627 2.189s-7.002 1.751-9.194 0-2.188-3.505-2.188-3.505z"></path>
</svg>
