<?xml version="1.0" encoding="utf-8"?>
<!-- Generated by IcoMoon.io -->
<!DOCTYPE svg PUBLIC "-//W3C//DTD SVG 1.1//EN" "http://www.w3.org/Graphics/SVG/1.1/DTD/svg11.dtd">
<svg version="1.1" xmlns="http://www.w3.org/2000/svg" xmlns:xlink="http://www.w3.org/1999/xlink" width="33" height="32" viewBox="0 0 33 32">
<path fill="none" stroke="#000" stroke-width="1.5007" stroke-miterlimit="10" stroke-linecap="butt" stroke-linejoin="miter" d="M26.53 16.001c-2.195 8.715-5.402 15.249-12.057 15.249s-9.865-6.534-12.057-15.249c-2.056-8.171 5.398-15.251 12.057-15.251s14.115 7.080 12.057 15.251z"></path>
<path d="M12.281 18.179c0 1.203-0.982 2.179-2.193 2.179s-2.192-0.976-2.192-2.179c0-1.203 0.982-2.179 2.192-2.179s2.192 0.976 2.192 2.179z"></path>
<path d="M21.049 18.179c0 1.203-0.982 2.179-2.192 2.179s-2.192-0.976-2.192-2.179c0-1.203 0.982-2.179 2.192-2.179s2.192 0.976 2.192 2.179z"></path>
<path d="M2.416 16.001s-3.288-1.089-2.192 2.176 2.192 3.268 2.192 3.268 1.697 0.803 1.396-0.688-1.396-4.756-1.396-4.756z"></path>
<path d="M26.833 16.001s3.312-1.097 2.208 2.194-2.208 3.291-2.208 3.291-1.709 0.809-1.407-0.693 1.407-4.792 1.407-4.792z"></path>
<path d="M2.517 12.943h30.697v1.534h-30.697v-1.534z"></path>
<path d="M14.795 0.647c-11.767-0.514-12.79 13.835-12.79 13.835h25.137s-0.58-13.321-12.347-13.835zM13.718 2.79c0.567-0.055 1.165-0.134 1.247 0.705 0.080 0.813-0.292 1.24-1.089 1.222-2.053-0.046-3.902 0.689-5.871 1.33 1.294-2.149 3.326-3.026 5.714-3.256zM18.149 12.123c-2.193-0.035-4.387-0.017-6.581 0-1.329 0.014-1.611-0.514-0.896-1.617v0 0l0.168-0.75c0.647-2.057 2.126-2.979 4.202-2.945 1.99 0.036 3.358 0.993 3.952 2.944v0.005-0.005c0.079 0.064 0.129 0.161 0.129 0.269 0 0.040-0.007 0.078-0.019 0.114l0.005 0.010c0.624 1.114 0.862 2.004-0.96 1.976z"></path>
</svg>
