<?xml version="1.0" encoding="utf-8"?>
<!-- Generated by IcoMoon.io -->
<!DOCTYPE svg PUBLIC "-//W3C//DTD SVG 1.1//EN" "http://www.w3.org/Graphics/SVG/1.1/DTD/svg11.dtd">
<svg version="1.1" xmlns="http://www.w3.org/2000/svg" xmlns:xlink="http://www.w3.org/1999/xlink" width="31" height="32" viewBox="0 0 31 32">
<path fill="none" stroke="#000" stroke-width="1.5010" stroke-miterlimit="10" stroke-linecap="butt" stroke-linejoin="miter" d="M27.786 15.999c-2.194 8.714-5.398 15.25-12.055 15.25s-9.866-6.536-12.058-15.25c-2.056-8.171 5.398-15.251 12.058-15.251s14.109 7.080 12.055 15.251z"></path>
<path d="M3.672 15.999s-3.288-1.089-2.192 2.176 2.192 3.268 2.192 3.268 1.698 0.803 1.397-0.687-1.397-4.757-1.397-4.757z"></path>
<path d="M28.088 15.999s3.312-1.097 2.208 2.194-2.208 3.292-2.208 3.292-1.709 0.802-1.406-0.699 1.406-4.787 1.406-4.787z"></path>
<path d="M15.028 0.663s-11.258 2.558-13.302 7.162 0 3.070 0 3.070-3.069 0.511-1.023 4.093 3.070 2.047 3.070 2.047-2.047-12.279 11.767-14.325c0 0 7.674-2.047 11.258 10.232v4.093h2.558s4.604-2.558-1.535-11.767c-0.002 0-13.303-6.651-12.792-4.604z"></path>
<path d="M18.324 14.684c-1.932 0.521-3.777 1.069-5.751-0.206-0.83-0.535-2.164-0.45-3.247 0.038-0.069 0.086-0.175 0.14-0.293 0.14-0.027 0-0.053-0.003-0.078-0.008-0.51 0.621-1.174 1.171-1.499 1.877-0.864 1.884 0.145 4.152 2.026 4.827 2.053 0.736 4.011-0.288 4.716-2.582 0.225-0.733 0.306-1.501 1.223-1.558 0.6-0.038 0.937 0.351 1.18 0.985 1.517 3.978 3.723 4.48 6.845 1.633 0.801-4.226-0.825-5.858-5.124-5.145zM10.698 20.282c-1.37-0.032-2.316-0.924-2.282-2.342 0.034-1.398 0.976-2.296 2.357-2.276s2.176 0.933 2.327 2.297c-0.222 1.421-1.006 2.354-2.402 2.321zM22.463 18.079c-0.070 1.42-1.044 2.258-2.408 2.199s-2.282-1.011-2.209-2.407c0.071-1.375 1.037-2.11 2.348-2.285 1.377 0.342 2.339 1.059 2.269 2.492z"></path>
</svg>
