<svg style="position: absolute; width: 0; height: 0; overflow: hidden;" version="1.1" xmlns="http://www.w3.org/2000/svg" xmlns:xlink="http://www.w3.org/1999/xlink">
<defs>
<symbol id="face1" viewBox="0 0 25 32">
<title>face1</title>
<path fill="#000" style="fill: var(--color1, #000)" d="M10.405 19c0 1.019-0.832 1.846-1.857 1.846s-1.857-0.826-1.857-1.846c0-1.019 0.832-1.846 1.857-1.846s1.857 0.826 1.857 1.846z"></path>
<path fill="#000" style="fill: var(--color1, #000)" d="M17.834 19c0 1.019-0.831 1.846-1.857 1.846s-1.857-0.826-1.857-1.846c0-1.019 0.832-1.846 1.857-1.846s1.857 0.826 1.857 1.846z"></path>
<path fill="#000" style="fill: var(--color1, #000)" d="M2.047 17.155s-2.786-0.924-1.857 1.848 1.857 2.772 1.857 2.772 1.438 0.681 1.183-0.583-1.183-4.037-1.183-4.037z"></path>
<path fill="#000" style="fill: var(--color1, #000)" d="M22.735 17.155s2.806-0.929 1.87 1.86-1.87 2.789-1.87 2.789-1.448 0.685-1.192-0.587 1.192-4.062 1.192-4.062z"></path>
<path fill="#000" style="fill: var(--color1, #000)" d="M1.532 11.962s1.734-5.636 5.636-6.935 0.867-3.035 0.867-3.035l-0.867-0.868s2.6-3.034 8.669 0.867c0 0 6.502 6.935 6.069 8.669-0.273 1.095-4.867 2.189-8.217 2.849-1.213 0.249-2.607 0.391-4.034 0.391-1.148 0-2.274-0.092-3.372-0.27-2.319-0.365-4.991-0.951-4.751-1.669z"></path>
<path fill="#000" style="fill: var(--color1, #000)" d="M2.833 22.799l0.433-2.601s3.035 5.202 6.935 3.035c2.387-1.325 4.285-0.868 5.401-0.313 0.327 0.167 0.713 0.264 1.121 0.264 0.579 0 1.113-0.196 1.538-0.526 0.978-0.758 2.542-1.915 2.778-3.327l2.168 1.3s-0.433 1.3-1.734 3.902c-0.801 1.601-2.302 4.421-4.473 5.957-2.881 2.040-6.776 2.031-9.563-0.132-1.789-1.388-3.526-3.707-4.605-7.559z"></path>
<path fill="#000" style="fill: var(--color1, #000)" d="M1.532 11.962s-0.867 6.069 1.3 10.837 2.601 0 2.601 0-2.601-2.794-1.736-9.971z"></path>
<path fill="#000" style="fill: var(--color1, #000)" d="M21.906 9.794s3.035 6.069 0.867 10.837-3.465 1.3-3.465 1.3 3.035-2.601 1.3-10.837z"></path>
<path fill="#f4f5f5" style="fill: var(--color2, #f4f5f5)" d="M14.537 26.050c0 0.598-0.97 1.95-2.168 1.95s-2.168-1.352-2.168-1.95 0.97-0.216 2.168-0.216 2.168-0.382 2.168 0.216z"></path>
</symbol>
<symbol id="face2" viewBox="0 0 29 32">
<title>face2</title>
<path fill="none" stroke="#000" stroke-width="1.4889" stroke-miterlimit="10" stroke-linecap="butt" stroke-linejoin="miter" d="M26.538 16c-2.194 8.716-5.4 15.256-12.060 15.256s-9.868-6.539-12.060-15.256c-2.056-8.174 5.4-15.256 12.060-15.256s14.117 7.081 12.060 15.256z"></path>
<path d="M12.285 18.18c0 1.203-0.982 2.179-2.193 2.179s-2.193-0.976-2.193-2.179c0-1.203 0.982-2.179 2.193-2.179s2.193 0.976 2.193 2.179z"></path>
<path d="M21.056 18.18c0 1.203-0.982 2.179-2.193 2.179s-2.193-0.976-2.193-2.179c0-1.203 0.982-2.179 2.193-2.179s2.193 0.976 2.193 2.179z"></path>
<path d="M2.417 16s-3.289-1.090-2.193 2.179 2.193 3.269 2.193 3.269 1.698 0.803 1.397-0.688-1.397-4.76-1.397-4.76z"></path>
<path d="M26.842 16s3.313-1.097 2.209 2.195-2.209 3.293-2.209 3.293-1.707 0.809-1.409-0.692 1.409-4.796 1.409-4.796z"></path>
<path d="M8.067 23.073c1.609 1.464 2.763 1.768 3.946 0.162 0.643-0.872 4.616-0.957 5.459-0.289 2.035 1.613 2.035 1.613 3.955 0.635-0.223 2.283-1.296 3.393-3.573 3.021-2.026-0.331-3.871-0.527-5.956-0.027-1.932 0.465-3.588-0.545-3.831-3.503z"></path>
<path d="M25.863 7.779c0 1.123-7.107 4.578-11.771 4.578s-10.748-3.454-10.748-4.578 6.595-7.121 11.259-7.121 11.259 5.997 11.259 7.121z"></path>
</symbol>
<symbol id="face3" viewBox="0 0 31 32">
<title>face3</title>
<path fill="#000" style="fill: var(--color1, #000)" d="M30.627 13.746c0 4.038-2.737 7.136-6.525 8.995-1.218 0.601 0.3-4.865-1.131-7.83-1.637-3.399-6.241-4.411-7.876-4.411-1.871 0-5.508 0.835-7.231 4.334-1.277 2.59-0.68 8.268-1.833 7.654-3.529-1.879-6.030-4.881-6.030-8.741 0-6.824 7.817-13.746 15.313-13.746s15.313 6.924 15.313 13.746z"></path>
<path fill="none" stroke="#000" stroke-width="1.5023" stroke-miterlimit="10" stroke-linecap="butt" stroke-linejoin="miter" d="M23.296 20.874c-1.492 5.928-3.672 10.374-8.202 10.374s-6.711-4.446-8.202-10.374c-1.398-5.559 3.672-10.374 8.202-10.374s9.6 4.816 8.202 10.374z"></path>
<path fill="#3b3b3b" style="fill: var(--color3, #3b3b3b)" d="M13.602 22.356c0 0.819-0.668 1.482-1.491 1.482s-1.491-0.664-1.491-1.482c0-0.819 0.668-1.482 1.491-1.482s1.491 0.664 1.491 1.482z"></path>
<path fill="#3b3b3b" style="fill: var(--color3, #3b3b3b)" d="M19.567 22.356c0 0.819-0.668 1.482-1.491 1.482s-1.491-0.664-1.491-1.482c0-0.819 0.668-1.482 1.491-1.482s1.491 0.664 1.491 1.482z"></path>
<path fill="#000" style="fill: var(--color1, #000)" d="M6.892 20.874s-2.235-0.743-1.494 1.482 1.491 2.223 1.491 2.223 1.155 0.546 0.95-0.468-0.947-3.238-0.947-3.238z"></path>
<path fill="#000" style="fill: var(--color1, #000)" d="M23.501 20.874s2.254-0.747 1.502 1.493-1.502 2.239-1.502 2.239-1.163 0.55-0.957-0.471 0.957-3.261 0.957-3.261z"></path>
<path fill="#000" style="fill: var(--color1, #000)" d="M20.615 20.619c1.445 0.491 0.983 1.713 0.883 2.654-0.112 1.052-1.057 1.103-1.93 1.080-0.662-0.018-1.326-0.023-1.988 0-1.044 0.036-1.719-0.319-1.721-1.486 0-0.463-0.075-0.927-0.676-0.937-0.66-0.011-0.601 0.509-0.62 0.943-0.049 1.142-0.732 1.502-1.766 1.475-0.662-0.019-1.325 0-1.988 0-0.717 0-1.629 0.115-1.798-0.769-0.19-0.995-0.697-2.196 0.619-2.93 1.33 0.211 2.658 0.267 3.981-0.028 1 0.451 2.003 0.538 3.012 0.028 1.336 0.246 2.664 0.206 3.99-0.031z"></path>
<path fill="#000" style="fill: var(--color1, #000)" d="M22.97 13.573c0 1.345-3.35 3.48-7.482 3.48s-7.482-2.135-7.482-3.48 3.35-4.524 7.482-4.524 7.482 3.179 7.482 4.524z"></path>
</symbol>
<symbol id="face4" viewBox="0 0 33 32">
<title>face4</title>
<path fill="none" stroke="#000" stroke-width="1.5007" stroke-miterlimit="10" stroke-linecap="butt" stroke-linejoin="miter" d="M26.53 16.001c-2.195 8.715-5.402 15.249-12.057 15.249s-9.865-6.534-12.057-15.249c-2.056-8.171 5.398-15.251 12.057-15.251s14.115 7.080 12.057 15.251z"></path>
<path d="M12.281 18.179c0 1.203-0.982 2.179-2.193 2.179s-2.192-0.976-2.192-2.179c0-1.203 0.982-2.179 2.192-2.179s2.192 0.976 2.192 2.179z"></path>
<path d="M21.049 18.179c0 1.203-0.982 2.179-2.192 2.179s-2.192-0.976-2.192-2.179c0-1.203 0.982-2.179 2.192-2.179s2.192 0.976 2.192 2.179z"></path>
<path d="M2.416 16.001s-3.288-1.089-2.192 2.176 2.192 3.268 2.192 3.268 1.697 0.803 1.396-0.688-1.396-4.756-1.396-4.756z"></path>
<path d="M26.833 16.001s3.312-1.097 2.208 2.194-2.208 3.291-2.208 3.291-1.709 0.809-1.407-0.693 1.407-4.792 1.407-4.792z"></path>
<path d="M2.517 12.943h30.697v1.534h-30.697v-1.534z"></path>
<path d="M14.795 0.647c-11.767-0.514-12.79 13.835-12.79 13.835h25.137s-0.58-13.321-12.347-13.835zM13.718 2.79c0.567-0.055 1.165-0.134 1.247 0.705 0.080 0.813-0.292 1.24-1.089 1.222-2.053-0.046-3.902 0.689-5.871 1.33 1.294-2.149 3.326-3.026 5.714-3.256zM18.149 12.123c-2.193-0.035-4.387-0.017-6.581 0-1.329 0.014-1.611-0.514-0.896-1.617v0 0l0.168-0.75c0.647-2.057 2.126-2.979 4.202-2.945 1.99 0.036 3.358 0.993 3.952 2.944v0.005-0.005c0.079 0.064 0.129 0.161 0.129 0.269 0 0.040-0.007 0.078-0.019 0.114l0.005 0.010c0.624 1.114 0.862 2.004-0.96 1.976z"></path>
</symbol>
<symbol id="face5" viewBox="0 0 29 32">
<title>face5</title>
<path fill="none" stroke="#000" stroke-width="1.5149" stroke-miterlimit="10" stroke-linecap="butt" stroke-linejoin="miter" d="M25.927 16.752c-2.083 8.28-5.129 14.49-11.455 14.49s-9.374-6.21-11.458-14.49c-1.953-7.764 5.129-14.49 11.453-14.49s13.411 6.727 11.46 14.49z"></path>
<path d="M12.386 18.822c0 1.143-0.933 2.070-2.083 2.070s-2.083-0.927-2.083-2.070c0-1.143 0.933-2.070 2.083-2.070s2.083 0.927 2.083 2.070z"></path>
<path d="M20.717 18.822c0 1.143-0.933 2.070-2.083 2.070s-2.083-0.927-2.083-2.070c0-1.143 0.933-2.070 2.083-2.070s2.083 0.927 2.083 2.070z"></path>
<path d="M3.014 16.752s-3.124-1.035-2.082 2.070 2.083 3.105 2.083 3.105 1.613 0.763 1.327-0.654-1.328-4.522-1.328-4.522z"></path>
<path d="M26.213 16.752s3.146-1.042 2.098 2.084-2.098 3.128-2.098 3.128-1.624 0.768-1.337-0.658 1.337-4.554 1.337-4.554z"></path>
<path d="M26.442 13.36s1.944-8.75-6.802-12.149-16.045 1.457-16.045 1.457l2.431 0.973s-7.291 2.428-5.833 9.719l0.489 0.973s1.458-3.889 2.917-2.917c0 0 9.236-3.889 12.152 0.973s10.691 0.972 10.691 0.972z"></path>
</symbol>
<symbol id="face6" viewBox="0 0 25 32">
<title>face6</title>
<path fill="none" stroke="#000" stroke-width="1.5059" stroke-miterlimit="10" stroke-linecap="butt" stroke-linejoin="miter" d="M22.865 18.022c-1.889 7.557-4.652 13.225-10.391 13.225s-8.502-5.668-10.391-13.225c-1.772-7.086 4.652-13.225 10.391-13.225s12.162 6.139 10.391 13.225z"></path>
<path d="M10.584 19.911c0 1.043-0.846 1.889-1.889 1.889s-1.889-0.846-1.889-1.889c0-1.043 0.846-1.889 1.889-1.889s1.889 0.846 1.889 1.889z"></path>
<path d="M18.141 19.911c0 1.043-0.846 1.889-1.889 1.889s-1.889-0.846-1.889-1.889c0-1.043 0.846-1.889 1.889-1.889s1.889 0.846 1.889 1.889z"></path>
<path d="M2.082 18.022s-2.835-0.945-1.889 1.889 1.889 2.834 1.889 2.834 1.463 0.696 1.205-0.596-1.205-4.127-1.205-4.127z"></path>
<path d="M22.965 18.022s2.834-0.945 1.889 1.889-1.889 2.834-1.889 2.834-1.463 0.696-1.205-0.596 1.205-4.127 1.205-4.127z"></path>
<path d="M5.781 7.002s3.064-2.184 5.691-2.184 0.876-3.506 0.876-3.506 2.626 1.314 2.626 2.188 1.751-3.501 1.751-3.501c3.503 5.691 0.876 7.443 3.064 8.319 0 0-1.313 1.751-2.627 2.189s-7.002 1.751-9.194 0-2.188-3.505-2.188-3.505z"></path>
</symbol>
<symbol id="face7" viewBox="0 0 31 32">
<title>face7</title>
<path fill="none" stroke="#000" stroke-width="1.5010" stroke-miterlimit="10" stroke-linecap="butt" stroke-linejoin="miter" d="M27.786 15.999c-2.194 8.714-5.398 15.25-12.055 15.25s-9.866-6.536-12.058-15.25c-2.056-8.171 5.398-15.251 12.058-15.251s14.109 7.080 12.055 15.251z"></path>
<path d="M3.672 15.999s-3.288-1.089-2.192 2.176 2.192 3.268 2.192 3.268 1.698 0.803 1.397-0.687-1.397-4.757-1.397-4.757z"></path>
<path d="M28.088 15.999s3.312-1.097 2.208 2.194-2.208 3.292-2.208 3.292-1.709 0.802-1.406-0.699 1.406-4.787 1.406-4.787z"></path>
<path d="M15.028 0.663s-11.258 2.558-13.302 7.162 0 3.070 0 3.070-3.069 0.511-1.023 4.093 3.070 2.047 3.070 2.047-2.047-12.279 11.767-14.325c0 0 7.674-2.047 11.258 10.232v4.093h2.558s4.604-2.558-1.535-11.767c-0.002 0-13.303-6.651-12.792-4.604z"></path>
<path d="M18.324 14.684c-1.932 0.521-3.777 1.069-5.751-0.206-0.83-0.535-2.164-0.45-3.247 0.038-0.069 0.086-0.175 0.14-0.293 0.14-0.027 0-0.053-0.003-0.078-0.008-0.51 0.621-1.174 1.171-1.499 1.877-0.864 1.884 0.145 4.152 2.026 4.827 2.053 0.736 4.011-0.288 4.716-2.582 0.225-0.733 0.306-1.501 1.223-1.558 0.6-0.038 0.937 0.351 1.18 0.985 1.517 3.978 3.723 4.48 6.845 1.633 0.801-4.226-0.825-5.858-5.124-5.145zM10.698 20.282c-1.37-0.032-2.316-0.924-2.282-2.342 0.034-1.398 0.976-2.296 2.357-2.276s2.176 0.933 2.327 2.297c-0.222 1.421-1.006 2.354-2.402 2.321zM22.463 18.079c-0.070 1.42-1.044 2.258-2.408 2.199s-2.282-1.011-2.209-2.407c0.071-1.375 1.037-2.11 2.348-2.285 1.377 0.342 2.339 1.059 2.269 2.492z"></path>
</symbol>
</defs>
</svg>
